<svg xmlns="http://www.w3.org/2000/svg" id="canvas" viewBox="268.852 287.164 829.565 223.992"><path d="M 369.23,338.28 C 368.52 337.58, 368.18 337.06, 366.48 337.32 C 364.79 337.58, 363.63 337.39, 360.75 339.60 C 357.88 341.81, 356.29 344.12, 352.11 348.37 C 347.93 352.62, 345.42 355.27, 339.86 360.84 C 334.29 366.41, 330.61 369.74, 324.28 376.22 C 317.95 382.70, 314.37 386.56, 308.19 393.23 C 302.01 399.91, 298.73 403.54, 293.37 409.58 C 288.01 415.63, 285.42 418.80, 281.40 423.45 C 277.37 428.11, 275.02 429.93, 273.24 432.87 C 271.46 435.82, 271.60 437.14, 272.50 438.17 C 273.41 439.21, 275.41 439.89, 277.76 438.04 C 280.12 436.19, 280.86 433.57, 284.28 428.91 C 287.70 424.25, 290.07 421.07, 294.88 414.74 C 299.69 408.42, 302.60 404.49, 308.34 397.28 C 314.08 390.07, 317.40 386.01, 323.58 378.69 C 329.77 371.37, 333.18 367.49, 339.26 360.68 C 345.34 353.87, 348.54 350.42, 353.97 344.64 C 359.41 338.85, 361.96 336.00, 366.45 331.75 C 370.93 327.50, 373.03 325.73, 376.39 323.39 C 379.76 321.04, 381.27 320.74, 383.27 320.03 C 385.26 319.33, 385.45 319.16, 386.38 319.85 C 387.31 320.55, 387.06 321.42, 387.92 323.52 C 388.79 325.62, 389.72 326.93, 390.70 330.35 C 391.68 333.77, 392.18 336.12, 392.83 340.62 C 393.48 345.13, 393.66 347.99, 393.96 352.86 C 394.27 357.73, 394.45 360.20, 394.36 364.98 C 394.26 369.76, 394.00 372.28, 393.49 376.75 C 392.97 381.23, 392.58 383.49, 391.77 387.38 C 390.97 391.26, 390.56 393.00, 389.46 396.16 C 388.36 399.32, 387.51 400.80, 386.28 403.19 C 385.05 405.57, 384.53 406.55, 383.31 408.08 C 382.08 409.62, 381.52 410.05, 380.16 410.89 C 378.81 411.72, 378.11 412.10, 376.53 412.26 C 374.96 412.42, 374.45 412.11, 372.28 411.69 C 370.11 411.28, 368.61 410.90, 365.68 410.20 C 362.75 409.50, 361.02 409.10, 357.63 408.19 C 354.25 407.28, 352.37 406.59, 348.75 405.64 C 345.12 404.70, 343.09 404.16, 339.51 403.46 C 335.92 402.76, 334.08 402.23, 330.82 402.17 C 327.57 402.11, 325.82 402.37, 323.22 403.16 C 320.62 403.95, 319.38 404.53, 317.81 406.12 C 316.24 407.71, 315.48 408.97, 315.35 411.12 C 315.23 413.27, 315.74 414.93, 317.20 416.87 C 318.66 418.81, 319.85 419.81, 322.65 420.83 C 325.46 421.85, 327.33 421.73, 331.20 421.96 C 335.08 422.20, 337.36 422.32, 342.04 421.99 C 346.72 421.66, 349.30 421.30, 354.60 420.31 C 359.90 419.32, 362.75 418.69, 368.54 417.03 C 374.32 415.36, 377.60 414.39, 383.52 411.98 C 389.44 409.57, 392.61 408.02, 398.15 404.99 C 403.70 401.96, 406.24 400.25, 411.24 396.84 C 416.23 393.43, 418.76 391.68, 423.12 387.96 C 427.48 384.24, 429.58 382.06, 433.04 378.26 C 436.50 374.45, 437.92 372.47, 440.41 368.93 C 442.90 365.40, 444.05 363.64, 445.50 360.59 C 446.95 357.53, 447.28 356.14, 447.65 353.65 C 448.02 351.16, 447.80 350.03, 447.35 348.15 C 446.90 346.28, 446.48 345.56, 445.41 344.28 C 444.34 342.99, 443.67 342.39, 442.00 341.74 C 440.32 341.09, 439.06 340.68, 437.03 341.03 C 435.00 341.38, 433.83 342.06, 431.85 343.48 C 429.86 344.91, 428.90 345.77, 427.12 348.17 C 425.34 350.57, 424.40 352.17, 422.95 355.49 C 421.50 358.80, 420.75 360.92, 419.85 364.76 C 418.95 368.60, 418.71 370.75, 418.45 374.68 C 418.20 378.61, 418.00 380.68, 418.58 384.40 C 419.16 388.13, 419.69 390.22, 421.37 393.30 C 423.06 396.38, 424.39 397.86, 427.02 399.80 C 429.66 401.74, 431.32 402.43, 434.56 403.01 C 437.79 403.60, 439.77 403.59, 443.20 402.73 C 446.64 401.86, 448.49 400.80, 451.73 398.67 C 454.97 396.54, 456.65 395.04, 459.38 392.07 C 462.11 389.10, 463.46 387.39, 465.38 383.81 C 467.30 380.23, 468.25 378.02, 468.99 374.17 C 469.73 370.32, 469.75 368.20, 469.08 364.57 C 468.40 360.94, 467.55 359.08, 465.61 356.04 C 463.66 352.99, 462.13 351.34, 459.34 349.36 C 456.55 347.37, 454.64 346.68, 451.66 346.10 C 448.69 345.51, 446.88 345.61, 444.47 346.44 C 442.06 347.26, 440.71 348.22, 439.60 350.24 C 438.50 352.26, 438.17 354.12, 438.95 356.55 C 439.73 358.98, 440.76 360.90, 443.50 362.39 C 446.25 363.88, 448.60 363.86, 452.66 364.02 C 456.72 364.17, 459.16 363.79, 463.80 363.17 C 468.44 362.54, 470.95 361.93, 475.84 360.88 C 480.73 359.83, 483.49 359.08, 488.24 357.91 C 492.99 356.73, 495.65 355.88, 499.58 355.00 C 503.51 354.11, 505.56 354.04, 507.88 353.49 C 510.20 352.95, 510.84 352.21, 511.20 352.26 C 511.55 352.32, 510.73 352.25, 509.66 353.77 C 508.58 355.29, 507.65 356.83, 505.83 359.85 C 504.01 362.87, 502.80 365.13, 500.58 368.87 C 498.36 372.62, 496.79 375.10, 494.74 378.58 C 492.68 382.06, 490.94 383.61, 490.31 386.26 C 489.67 388.91, 490.22 390.47, 491.57 391.83 C 492.91 393.19, 494.65 393.93, 497.03 393.07 C 499.41 392.21, 500.73 390.42, 503.49 387.54 C 506.25 384.66, 507.69 382.26, 510.83 378.67 C 513.96 375.08, 515.91 372.93, 519.16 369.61 C 522.41 366.29, 524.38 364.49, 527.05 362.07 C 529.73 359.64, 531.07 358.74, 532.53 357.48 C 533.99 356.22, 533.87 355.74, 534.36 355.78 C 534.86 355.83, 534.49 356.48, 535.00 357.72 C 535.51 358.95, 535.51 360.24, 536.92 361.97 C 538.33 363.70, 539.49 365.02, 542.05 366.36 C 544.61 367.71, 546.50 368.33, 549.71 368.72 C 552.92 369.10, 554.60 368.87, 558.11 368.28 C 561.62 367.70, 563.47 367.09, 567.25 365.80 C 571.04 364.52, 573.25 363.63, 577.06 361.85 C 580.87 360.08, 582.80 358.88, 586.30 356.91 C 589.80 354.95, 591.73 354.01, 594.57 352.04 C 597.41 350.06, 599.31 349.01, 600.51 347.02 C 601.71 345.04, 601.49 343.32, 600.58 342.11 C 599.67 340.91, 598.08 340.57, 595.97 341.00 C 593.86 341.42, 592.13 342.01, 590.04 344.23 C 587.94 346.46, 587.13 348.74, 585.49 352.11 C 583.85 355.47, 582.67 357.43, 581.83 361.05 C 580.99 364.66, 580.68 366.81, 581.29 370.17 C 581.90 373.54, 582.72 375.38, 584.88 377.87 C 587.03 380.35, 588.51 381.64, 592.06 382.59 C 595.61 383.53, 598.15 383.30, 602.63 382.60 C 607.11 381.91, 609.54 381.10, 614.45 379.10 C 619.36 377.10, 621.94 375.57, 627.17 372.62 C 632.39 369.68, 635.46 367.87, 640.57 364.37 C 645.69 360.87, 648.33 358.64, 652.72 355.11 C 657.12 351.58, 659.27 349.46, 662.54 346.73 C 665.82 344.00, 667.67 343.12, 669.08 341.48 C 670.49 339.83, 670.18 338.75, 669.60 338.49 C 669.01 338.23, 667.45 338.07, 666.16 340.18 C 664.87 342.29, 664.85 344.54, 663.14 349.03 C 661.42 353.52, 660.16 356.38, 657.58 362.62 C 655.00 368.85, 653.45 372.60, 650.25 380.21 C 647.04 387.81, 645.22 392.21, 641.54 400.64 C 637.86 409.07, 635.99 413.64, 631.83 422.37 C 627.68 431.10, 625.34 435.81, 620.75 444.28 C 616.16 452.75, 613.70 457.22, 608.88 464.70 C 604.07 472.19, 601.52 475.78, 596.66 481.69 C 591.81 487.59, 589.13 490.33, 584.59 494.25 C 580.06 498.17, 577.62 499.62, 573.99 501.28 C 570.37 502.95, 568.83 502.84, 566.45 502.58 C 564.08 502.32, 563.52 502.02, 562.13 499.97 C 560.74 497.92, 559.95 496.35, 559.51 492.34 C 559.07 488.32, 559.02 485.36, 559.94 479.89 C 560.86 474.41, 561.65 471.06, 564.12 464.97 C 566.59 458.87, 568.27 455.59, 572.28 449.40 C 576.29 443.22, 578.76 439.95, 584.17 434.02 C 589.57 428.09, 592.75 425.33, 599.31 419.77 C 605.88 414.20, 609.61 411.43, 616.98 406.20 C 624.34 400.96, 628.14 398.25, 636.14 393.61 C 644.14 388.96, 648.52 387.01, 656.97 382.96 C 665.42 378.91, 669.90 377.04, 678.40 373.35 C 686.90 369.66, 691.20 367.70, 699.46 364.49 C 707.71 361.29, 711.99 359.91, 719.66 357.33 C 727.34 354.76, 731.38 353.49, 737.85 351.62 C 744.32 349.75, 747.61 349.21, 752.02 347.98 C 756.42 346.76, 758.46 346.52, 759.87 345.48 C 761.27 344.44, 760.56 342.78, 759.02 342.79 C 757.48 342.79, 755.74 343.40, 752.15 345.49 C 748.57 347.57, 745.90 349.70, 741.09 353.23 C 736.29 356.76, 733.06 359.10, 728.12 363.14 C 723.18 367.18, 720.30 369.44, 716.41 373.43 C 712.53 377.42, 710.52 379.32, 708.70 383.07 C 706.87 386.82, 706.26 389.08, 707.27 392.18 C 708.28 395.27, 709.96 397.15, 713.76 398.56 C 717.55 399.96, 720.43 399.79, 726.25 399.19 C 732.06 398.59, 735.65 397.59, 742.83 395.56 C 750.01 393.54, 754.22 392.04, 762.14 389.06 C 770.06 386.08, 774.36 384.13, 782.42 380.66 C 790.49 377.19, 794.87 375.03, 802.49 371.72 C 810.10 368.41, 814.15 366.77, 820.49 364.09 C 826.83 361.41, 829.82 360.28, 834.19 358.30 C 838.55 356.32, 840.76 355.82, 842.30 354.19 C 843.85 352.56, 843.41 350.89, 841.91 350.15 C 840.41 349.42, 838.47 349.21, 834.83 350.53 C 831.19 351.85, 828.53 353.77, 823.71 356.75 C 818.88 359.74, 815.62 361.91, 810.71 365.45 C 805.80 368.99, 803.11 371.07, 799.16 374.46 C 795.21 377.85, 793.10 379.29, 790.96 382.40 C 788.82 385.52, 788.09 387.33, 788.47 390.04 C 788.86 392.75, 790.26 394.62, 792.89 395.96 C 795.53 397.30, 797.61 397.16, 801.66 396.73 C 805.71 396.30, 808.14 395.46, 813.14 393.82 C 818.14 392.18, 821.21 391.00, 826.64 388.52 C 832.08 386.05, 835.19 384.42, 840.31 381.45 C 845.43 378.48, 848.06 376.78, 852.25 373.66 C 856.43 370.55, 858.51 368.98, 861.25 365.87 C 863.98 362.76, 865.22 361.20, 865.94 358.12 C 866.66 355.05, 865.98 353.13, 864.85 350.51 C 863.72 347.89, 862.47 346.58, 860.31 345.01 C 858.14 343.43, 856.26 342.49, 854.04 342.64 C 851.82 342.79, 850.20 344.04, 849.21 345.73 C 848.22 347.43, 848.03 349.25, 849.09 351.12 C 850.14 352.99, 851.42 354.41, 854.47 355.08 C 857.52 355.76, 859.80 354.94, 864.33 354.50 C 868.86 354.07, 871.54 353.60, 877.11 352.89 C 882.68 352.18, 886.07 351.69, 892.19 350.96 C 898.31 350.23, 901.71 349.81, 907.72 349.24 C 913.72 348.67, 916.96 348.33, 922.20 348.13 C 927.45 347.93, 930.08 348.07, 933.95 348.26 C 937.83 348.44, 939.41 349.13, 941.58 349.05 C 943.75 348.97, 944.52 348.40, 944.80 347.85 C 945.08 347.30, 944.47 346.32, 943.00 346.29 C 941.52 346.27, 940.27 346.30, 937.41 347.75 C 934.55 349.20, 932.72 350.77, 928.69 353.54 C 924.67 356.30, 921.96 358.21, 917.29 361.58 C 912.62 364.96, 909.87 366.75, 905.34 370.41 C 900.80 374.06, 898.22 376.39, 894.62 379.86 C 891.01 383.33, 888.89 384.77, 887.31 387.76 C 885.72 390.76, 885.73 392.61, 886.70 394.83 C 887.67 397.05, 889.26 398.69, 892.16 398.87 C 895.06 399.05, 897.01 397.96, 901.21 395.74 C 905.41 393.52, 907.65 391.66, 913.16 387.77 C 918.66 383.87, 922.09 381.52, 928.72 376.25 C 935.35 370.98, 939.19 367.57, 946.30 361.42 C 953.42 355.28, 957.24 351.95, 964.28 345.51 C 971.33 339.08, 975.12 335.62, 981.53 329.23 C 987.93 322.84, 991.17 319.16, 996.31 313.58 C 1001.44 307.99, 1004.21 305.33, 1007.22 301.30 C 1010.22 297.28, 1011.41 295.65, 1011.35 293.45 C 1011.30 291.25, 1009.39 289.70, 1006.93 290.29 C 1004.48 290.88, 1002.72 292.62, 999.07 296.41 C 995.42 300.20, 993.09 303.31, 988.68 309.23 C 984.27 315.15, 981.62 318.96, 977.00 326.03 C 972.39 333.10, 969.76 337.26, 965.62 344.58 C 961.48 351.90, 959.30 355.87, 956.31 362.63 C 953.33 369.39, 951.96 372.74, 950.70 378.40 C 949.44 384.05, 948.93 386.61, 950.00 390.92 C 951.07 395.23, 952.48 397.46, 956.04 399.95 C 959.61 402.44, 962.50 403.01, 967.82 403.38 C 973.15 403.74, 976.25 403.12, 982.67 401.77 C 989.08 400.42, 992.83 399.26, 999.90 396.62 C 1006.96 393.99, 1011.04 392.14, 1017.98 388.60 C 1024.91 385.06, 1028.46 382.78, 1034.57 378.92 C 1040.68 375.07, 1043.83 372.97, 1048.51 369.32 C 1053.19 365.67, 1055.51 364.06, 1057.97 360.67 C 1060.42 357.27, 1061.18 355.19, 1060.78 352.34 C 1060.38 349.50, 1058.98 347.36, 1055.97 346.44 C 1052.96 345.52, 1050.25 346.29, 1045.73 347.75 C 1041.21 349.21, 1038.29 350.74, 1033.36 353.74 C 1028.44 356.75, 1025.46 358.83, 1021.11 362.77 C 1016.77 366.71, 1014.19 369.03, 1011.64 373.44 C 1009.08 377.86, 1007.93 380.57, 1008.35 384.84 C 1008.77 389.10, 1010.23 391.55, 1013.75 394.78 C 1017.27 398.01, 1020.20 399.13, 1025.95 400.97 C 1031.71 402.82, 1035.06 403.29, 1042.53 404.03 C 1050.01 404.76, 1055.54 404.66, 1063.33 404.65 C 1071.11 404.64, 1075.39 404.33, 1081.46 403.99 C 1087.53 403.65, 1091.28 403.82, 1093.69 402.96 C 1096.09 402.11, 1095.96 400.26, 1093.48 399.72 C 1091.00 399.18, 1087.32 400.05, 1081.29 400.25 C 1075.26 400.45, 1071.01 400.77, 1063.34 400.71 C 1055.67 400.66, 1050.15 400.78, 1042.96 399.97 C 1035.77 399.16, 1032.55 398.45, 1027.39 396.67 C 1022.22 394.88, 1019.91 393.48, 1017.14 391.03 C 1014.37 388.57, 1013.75 387.37, 1013.53 384.38 C 1013.32 381.40, 1013.87 379.64, 1016.07 376.10 C 1018.28 372.55, 1020.53 370.14, 1024.56 366.67 C 1028.60 363.20, 1031.62 361.29, 1036.26 358.75 C 1040.91 356.20, 1044.00 355.25, 1047.79 353.95 C 1051.58 352.65, 1053.50 352.54, 1055.21 352.25 C 1056.92 351.95, 1056.64 351.41, 1056.34 352.46 C 1056.04 353.51, 1055.81 354.78, 1053.71 357.50 C 1051.61 360.22, 1050.07 362.40, 1045.84 366.06 C 1041.61 369.72, 1038.47 371.95, 1032.57 375.81 C 1026.67 379.68, 1023.14 381.95, 1016.34 385.38 C 1009.54 388.82, 1005.49 390.57, 998.58 392.99 C 991.68 395.40, 987.91 396.36, 981.82 397.46 C 975.74 398.55, 972.77 398.78, 968.17 398.44 C 963.58 398.10, 961.60 397.48, 958.86 395.75 C 956.12 394.02, 955.34 393.09, 954.49 389.79 C 953.64 386.48, 953.60 384.37, 954.61 379.22 C 955.62 374.06, 956.75 370.62, 959.53 364.02 C 962.31 357.42, 964.42 353.42, 968.51 346.22 C 972.61 339.03, 975.24 334.87, 979.99 328.03 C 984.73 321.20, 987.61 317.59, 992.24 312.04 C 996.87 306.50, 999.73 303.89, 1003.14 300.30 C 1006.54 296.70, 1008.25 295.64, 1009.28 294.06 C 1010.31 292.48, 1009.40 291.49, 1008.28 292.41 C 1007.17 293.32, 1006.60 294.86, 1003.70 298.64 C 1000.80 302.43, 998.63 305.64, 993.78 311.35 C 988.93 317.06, 985.74 320.77, 979.46 327.18 C 973.18 333.60, 969.40 337.03, 962.37 343.42 C 955.35 349.81, 951.50 353.11, 944.34 359.11 C 937.17 365.11, 933.30 368.47, 926.56 373.42 C 919.82 378.38, 916.26 380.56, 910.64 383.90 C 905.02 387.25, 902.30 388.40, 898.45 390.15 C 894.59 391.90, 893.06 391.91, 891.39 392.66 C 889.71 393.41, 889.77 394.17, 890.06 393.91 C 890.36 393.66, 891.17 393.42, 892.86 391.37 C 894.56 389.33, 895.40 387.09, 898.53 383.68 C 901.65 380.27, 904.13 377.84, 908.49 374.31 C 912.84 370.78, 915.57 369.02, 920.30 366.03 C 925.03 363.03, 927.86 361.46, 932.12 359.34 C 936.38 357.22, 938.72 357.09, 941.59 355.42 C 944.46 353.74, 945.42 352.87, 946.47 350.97 C 947.51 349.07, 947.62 347.63, 946.82 345.94 C 946.01 344.24, 945.01 343.18, 942.44 342.48 C 939.87 341.78, 938.07 342.27, 933.96 342.44 C 929.86 342.61, 927.24 342.86, 921.90 343.32 C 916.57 343.78, 913.32 344.16, 907.28 344.75 C 901.24 345.34, 897.83 345.75, 891.71 346.29 C 885.58 346.83, 882.14 347.25, 876.67 347.44 C 871.20 347.62, 868.48 347.67, 864.35 347.22 C 860.22 346.76, 858.56 345.37, 856.02 345.17 C 853.48 344.97, 852.68 345.44, 851.63 346.22 C 850.59 347.00, 850.61 347.95, 850.81 349.08 C 851.00 350.22, 851.49 351.22, 852.59 351.89 C 853.69 352.55, 854.98 352.09, 856.30 352.40 C 857.63 352.72, 858.55 352.63, 859.23 353.45 C 859.91 354.28, 860.20 354.82, 859.71 356.54 C 859.21 358.26, 858.86 359.44, 856.74 362.06 C 854.63 364.68, 852.91 366.60, 849.14 369.65 C 845.37 372.70, 842.81 374.47, 837.90 377.31 C 833.00 380.15, 829.91 381.71, 824.63 383.85 C 819.35 385.99, 816.25 386.89, 811.49 388.02 C 806.73 389.16, 804.20 389.12, 800.84 389.53 C 797.48 389.94, 796.24 390.02, 794.68 390.08 C 793.12 390.15, 792.80 390.64, 793.04 389.85 C 793.28 389.05, 793.95 388.39, 795.88 386.11 C 797.81 383.82, 799.11 381.70, 802.68 378.44 C 806.25 375.18, 808.90 373.04, 813.74 369.80 C 818.58 366.56, 822.04 364.80, 826.86 362.23 C 831.68 359.65, 834.69 358.83, 837.86 356.92 C 841.03 355.00, 842.23 354.02, 842.70 352.67 C 843.17 351.32, 842.32 349.89, 840.21 350.16 C 838.10 350.44, 836.39 351.91, 832.15 354.04 C 827.91 356.16, 825.20 357.84, 819.01 360.79 C 812.82 363.74, 808.76 365.40, 801.19 368.79 C 793.63 372.18, 789.23 374.36, 781.19 377.77 C 773.14 381.18, 768.85 383.08, 760.97 385.84 C 753.09 388.61, 748.82 389.93, 741.80 391.58 C 734.78 393.24, 731.10 393.85, 725.85 394.12 C 720.60 394.39, 718.29 393.62, 715.56 392.93 C 712.83 392.24, 712.59 392.12, 712.20 390.66 C 711.81 389.20, 712.07 388.39, 713.62 385.63 C 715.18 382.87, 716.47 380.58, 719.98 376.86 C 723.50 373.13, 726.29 370.75, 731.18 367.00 C 736.08 363.25, 739.51 361.27, 744.45 358.10 C 749.39 354.93, 752.49 353.66, 755.88 351.15 C 759.28 348.64, 760.76 347.47, 761.43 345.55 C 762.09 343.62, 761.36 341.98, 759.21 341.53 C 757.06 341.09, 755.17 341.98, 750.67 343.30 C 746.18 344.63, 743.15 345.93, 736.75 348.15 C 730.34 350.37, 726.32 351.67, 718.65 354.40 C 710.98 357.14, 706.68 358.56, 698.41 361.84 C 690.14 365.13, 685.82 367.10, 677.30 370.83 C 668.78 374.56, 664.30 376.42, 655.79 380.49 C 647.28 384.57, 642.84 386.53, 634.75 391.20 C 626.65 395.87, 622.80 398.60, 615.32 403.85 C 607.84 409.10, 604.07 411.86, 597.37 417.45 C 590.66 423.04, 587.40 425.82, 581.78 431.82 C 576.17 437.81, 573.59 441.11, 569.29 447.42 C 565.00 453.72, 563.17 457.04, 560.33 463.35 C 557.49 469.65, 556.42 473.04, 555.12 478.95 C 553.82 484.86, 553.39 487.97, 553.84 492.90 C 554.28 497.82, 554.92 500.52, 557.33 503.56 C 559.74 506.59, 562.15 507.70, 565.89 508.07 C 569.62 508.44, 571.79 507.62, 576.03 505.41 C 580.27 503.20, 582.46 501.36, 587.08 497.01 C 591.70 492.65, 594.27 489.81, 599.11 483.65 C 603.95 477.50, 606.47 473.85, 611.28 466.23 C 616.09 458.62, 618.54 454.11, 623.15 445.58 C 627.76 437.05, 630.11 432.31, 634.34 423.57 C 638.57 414.83, 640.47 410.26, 644.30 401.87 C 648.12 393.48, 649.98 389.11, 653.47 381.64 C 656.95 374.17, 658.64 370.53, 661.71 364.53 C 664.79 358.52, 666.55 356.00, 668.85 351.62 C 671.15 347.23, 672.79 345.52, 673.22 342.61 C 673.66 339.71, 672.56 338.32, 671.03 337.09 C 669.49 335.86, 668.01 335.40, 665.56 336.48 C 663.11 337.55, 661.95 339.47, 658.77 342.47 C 655.59 345.46, 653.81 347.82, 649.66 351.45 C 645.50 355.07, 642.95 357.21, 637.99 360.59 C 633.03 363.98, 629.96 365.72, 624.87 368.38 C 619.77 371.04, 617.12 372.35, 612.51 373.87 C 607.91 375.40, 605.58 375.75, 601.86 376.00 C 598.15 376.25, 596.25 375.66, 593.94 375.13 C 591.64 374.59, 591.23 374.51, 590.32 373.32 C 589.42 372.14, 589.45 371.17, 589.41 369.19 C 589.37 367.21, 589.25 365.86, 590.14 363.42 C 591.03 360.98, 592.12 359.46, 593.87 356.99 C 595.63 354.53, 597.56 353.35, 598.92 351.11 C 600.28 348.87, 600.48 347.63, 600.67 345.80 C 600.87 343.97, 600.88 342.83, 599.90 341.96 C 598.91 341.10, 597.75 340.74, 595.77 341.47 C 593.79 342.20, 592.59 343.71, 589.99 345.62 C 587.40 347.52, 585.94 348.99, 582.78 350.98 C 579.62 352.96, 577.73 353.99, 574.20 355.54 C 570.66 357.09, 568.52 357.83, 565.11 358.73 C 561.71 359.62, 559.96 359.87, 557.18 360.00 C 554.39 360.13, 553.30 359.82, 551.17 359.37 C 549.03 358.92, 548.05 358.53, 546.51 357.76 C 544.96 356.98, 544.75 356.50, 543.42 355.48 C 542.10 354.47, 541.59 353.60, 539.86 352.68 C 538.13 351.76, 536.98 351.05, 534.78 350.87 C 532.59 350.68, 531.35 350.51, 528.88 351.77 C 526.42 353.02, 525.29 354.44, 522.46 357.13 C 519.63 359.83, 518.06 361.89, 514.73 365.25 C 511.41 368.60, 509.26 370.59, 505.82 373.91 C 502.38 377.23, 500.17 379.09, 497.54 381.86 C 494.90 384.63, 493.51 385.92, 492.64 387.77 C 491.76 389.61, 492.29 390.68, 493.17 391.06 C 494.05 391.45, 495.41 391.42, 497.02 389.68 C 498.62 387.94, 499.21 385.75, 501.18 382.36 C 503.16 378.97, 504.57 376.41, 506.89 372.72 C 509.20 369.03, 510.84 367.29, 512.77 363.91 C 514.69 360.53, 516.25 358.80, 516.52 355.82 C 516.79 352.83, 515.99 350.91, 514.12 348.98 C 512.25 347.05, 510.40 346.18, 507.17 346.17 C 503.94 346.17, 502.04 347.70, 497.97 348.95 C 493.90 350.20, 491.47 351.18, 486.83 352.43 C 482.18 353.68, 479.44 354.38, 474.73 355.21 C 470.01 356.04, 467.51 356.45, 463.25 356.57 C 458.98 356.69, 456.63 356.33, 453.42 355.81 C 450.21 355.29, 448.94 354.44, 447.20 353.96 C 445.47 353.49, 445.33 353.59, 444.74 353.45 C 444.14 353.31, 444.04 353.21, 444.22 353.27 C 444.41 353.33, 444.58 353.48, 445.65 353.75 C 446.71 354.02, 447.82 354.04, 449.57 354.62 C 451.32 355.20, 452.50 355.45, 454.40 356.64 C 456.29 357.83, 457.57 358.69, 459.03 360.58 C 460.49 362.47, 461.14 363.63, 461.70 366.08 C 462.27 368.53, 462.39 369.96, 461.86 372.83 C 461.34 375.69, 460.64 377.55, 459.08 380.39 C 457.52 383.22, 456.36 384.67, 454.05 386.99 C 451.74 389.31, 450.12 390.45, 447.53 391.97 C 444.94 393.50, 443.45 393.98, 441.10 394.60 C 438.75 395.23, 437.67 395.31, 435.78 395.10 C 433.90 394.89, 433.16 394.69, 431.68 393.56 C 430.21 392.43, 429.53 391.53, 428.39 389.46 C 427.25 387.38, 426.49 386.01, 425.98 383.17 C 425.47 380.32, 425.55 378.51, 425.84 375.24 C 426.13 371.97, 426.43 369.96, 427.43 366.82 C 428.43 363.68, 429.31 362.01, 430.83 359.54 C 432.36 357.08, 433.58 356.18, 435.06 354.50 C 436.53 352.81, 437.19 352.22, 438.22 351.13 C 439.25 350.04, 439.75 349.71, 440.23 349.06 C 440.71 348.41, 440.52 348.12, 440.62 347.87 C 440.72 347.62, 440.64 347.55, 440.73 347.81 C 440.83 348.07, 441.08 348.25, 441.09 349.16 C 441.09 350.08, 441.15 350.66, 440.75 352.39 C 440.35 354.13, 440.12 355.13, 439.09 357.83 C 438.06 360.52, 437.56 362.43, 435.61 365.87 C 433.65 369.32, 432.40 371.29, 429.32 375.04 C 426.24 378.78, 424.28 380.94, 420.19 384.61 C 416.10 388.27, 413.66 390.03, 408.85 393.37 C 404.04 396.71, 401.54 398.40, 396.15 401.32 C 390.77 404.24, 387.69 405.72, 381.92 407.97 C 376.16 410.22, 372.95 411.13, 367.33 412.56 C 361.70 413.99, 358.87 414.49, 353.79 415.11 C 348.72 415.72, 346.25 415.87, 341.97 415.63 C 337.70 415.39, 335.65 414.76, 332.42 413.92 C 329.18 413.08, 327.90 412.03, 325.79 411.41 C 323.69 410.80, 323.00 410.90, 321.89 410.84 C 320.78 410.78, 320.36 410.95, 320.23 411.11 C 320.10 411.27, 320.29 411.64, 321.25 411.65 C 322.22 411.66, 323.14 411.40, 325.05 411.17 C 326.96 410.93, 328.17 410.50, 330.80 410.46 C 333.44 410.41, 335.02 410.46, 338.21 410.94 C 341.41 411.42, 343.37 411.89, 346.79 412.86 C 350.20 413.82, 351.97 414.61, 355.28 415.78 C 358.59 416.94, 360.19 417.71, 363.35 418.68 C 366.51 419.65, 368.15 420.37, 371.09 420.64 C 374.03 420.90, 375.43 420.69, 378.05 420.03 C 380.67 419.37, 381.97 418.77, 384.21 417.35 C 386.45 415.93, 387.44 415.12, 389.25 412.95 C 391.06 410.78, 391.94 409.49, 393.26 406.50 C 394.58 403.52, 394.98 401.63, 395.85 398.02 C 396.73 394.40, 397.00 392.56, 397.62 388.42 C 398.25 384.28, 398.55 381.98, 398.97 377.32 C 399.39 372.65, 399.60 370.04, 399.72 365.10 C 399.85 360.16, 399.69 357.65, 399.57 352.62 C 399.45 347.59, 399.45 344.75, 399.11 339.95 C 398.77 335.15, 398.70 332.68, 397.87 328.62 C 397.03 324.55, 396.77 322.37, 394.95 319.63 C 393.12 316.88, 391.46 315.92, 388.75 314.89 C 386.05 313.85, 384.47 313.49, 381.43 314.44 C 378.38 315.39, 377.04 316.71, 373.52 319.65 C 370.01 322.59, 368.21 324.57, 363.84 329.14 C 359.48 333.72, 357.03 336.60, 351.68 342.53 C 346.33 348.45, 343.17 351.92, 337.11 358.78 C 331.06 365.64, 327.64 369.53, 321.39 376.82 C 315.14 384.12, 311.80 388.18, 305.87 395.26 C 299.94 402.34, 296.90 406.16, 291.74 412.22 C 286.59 418.28, 283.86 421.22, 280.09 425.55 C 276.31 429.88, 274.25 431.34, 272.87 433.86 C 271.49 436.39, 272.28 437.75, 273.19 438.18 C 274.10 438.60, 275.17 438.44, 277.42 435.99 C 279.67 433.54, 280.76 430.78, 284.44 425.92 C 288.12 421.06, 290.60 417.81, 295.80 411.69 C 301.00 405.57, 304.28 401.95, 310.44 395.32 C 316.60 388.68, 320.17 384.85, 326.59 378.53 C 333.02 372.20, 336.75 368.92, 342.57 363.70 C 348.38 358.47, 351.07 355.91, 355.68 352.41 C 360.29 348.91, 362.88 348.12, 365.61 346.21 C 368.35 344.29, 368.47 343.91, 369.35 342.84 C 370.23 341.76, 370.04 341.73, 370.02 340.82 C 369.99 339.91, 369.94 338.98, 369.23 338.28" style="stroke: #89dceb; fill: #89dceb;"/></svg>
